<svg width="61" height="18" viewBox="0 0 61 18" fill="none" xmlns="http://www.w3.org/2000/svg">
<path d="M18.957 4.13574V14H20.1875V10.4795H22.4639C24.3164 10.4795 25.6357 9.17383 25.6357 7.30078C25.6357 5.43457 24.3301 4.13574 22.4775 4.13574H18.957ZM20.1875 5.22949H22.1562C23.5713 5.22949 24.3711 5.99512 24.3711 7.30078C24.3711 8.61328 23.5645 9.38574 22.1562 9.38574H20.1875V5.22949ZM29.0624 13.1113C28.2079 13.1113 27.6405 12.667 27.6405 11.9902C27.6405 11.3203 28.1874 10.8965 29.1444 10.835L31.0448 10.7188V11.2998C31.0448 12.3252 30.1835 13.1113 29.0624 13.1113ZM28.7958 14.123C29.7528 14.123 30.6551 13.5898 31.079 12.7764H31.1063V14H32.2342V9.08496C32.2342 7.66992 31.1815 6.76758 29.5135 6.76758C27.8319 6.76758 26.7792 7.71094 26.6971 8.94141H27.8456C27.996 8.24414 28.5702 7.81348 29.4862 7.81348C30.4706 7.81348 31.0448 8.33301 31.0448 9.20117V9.7959L29.0077 9.91211C27.3671 10.0078 26.4305 10.7734 26.4305 11.9902C26.4305 13.2686 27.3807 14.123 28.7958 14.123ZM34.7995 16.6592C36.0847 16.6592 36.6726 16.1602 37.281 14.499L40.0769 6.89062H38.8259L36.8572 12.8105H36.8367L34.8679 6.89062H33.5964L36.2214 14.0068L36.0574 14.5059C35.7839 15.333 35.4148 15.6543 34.7517 15.6543C34.6013 15.6543 34.4167 15.6475 34.2868 15.6201V16.6182C34.4167 16.6455 34.656 16.6592 34.7995 16.6592ZM41.4869 14H42.6764V9.54297C42.6764 8.55859 43.36 7.82031 44.3033 7.82031C45.1852 7.82031 45.7594 8.38086 45.7594 9.23535V14H46.9488V9.48145C46.9488 8.51758 47.6119 7.82031 48.5553 7.82031C49.4918 7.82031 50.0318 8.39453 50.0318 9.36523V14H51.2213V9.0918C51.2213 7.68359 50.3121 6.76758 48.9039 6.76758C47.9059 6.76758 47.0719 7.27344 46.6754 8.12109H46.648C46.3404 7.25977 45.6227 6.76758 44.652 6.76758C43.6949 6.76758 42.9703 7.27344 42.6354 8.02539H42.608V6.89062H41.4869V14ZM56.0561 7.7998C57.1772 7.7998 57.9223 8.64746 57.9497 9.83691H54.0874C54.1626 8.6543 54.9419 7.7998 56.0561 7.7998ZM57.9223 11.9629C57.7241 12.6328 57.061 13.0908 56.1587 13.0908C54.8803 13.0908 54.0805 12.1953 54.0805 10.835V10.7666H59.1801V10.3154C59.1801 8.16211 57.9975 6.76758 56.0766 6.76758C54.1147 6.76758 52.8569 8.26465 52.8569 10.4727C52.8569 12.708 54.0942 14.123 56.1313 14.123C57.6831 14.123 58.8862 13.207 59.0913 11.9629H57.9223Z" fill="#2D3A45"/>
<path fill-rule="evenodd" clip-rule="evenodd" d="M5 14C7.76142 14 10 11.7614 10 9C10 6.23858 7.76142 4 5 4C2.23858 4 0 6.23858 0 9C0 11.7614 2.23858 14 5 14Z" fill="#14E5E4"/>
</svg>
